PathFileType	4	(X/Y/Z)	Patient4_TMGait_0pt5_02_left_35.trc.trc
DataRate	CameraRate	NumFrames	NumMarkers	Units	OrigDataRate	OrigDataStartFrame	OrigNumFrames
77.348066298342	77.348066298342	5	33	mm	77.348066298342	89	       141
Frame#	Time	Sacral			L.Shoulder			Chest			R.Shoulder			Neck			R.ASIS			L.ASIS			R.Thigh.Superior			R.Thigh.Lateral			R.Thigh.Inferior			R.Patella			L.Thigh.Superior			L.Thigh.Lateral			L.Thigh.Inferior			L.Patella			L.Shank.Superior			L.Shank.Lateral			L.Shank.Inferior			R.Shank.Superior			R.Shank.Lateral			R.Shank.Inferior			R.Heel			R.Midfoot.Superior			R.Midfoot.Lateral			R.Toe			L.Heel			L.Midfoot.Lateral			L.Midfoot.Superior			L.Toe			L.Elbow			L.Wrist			R.Elbow			R.Wrist			
		X1	Y1	Z1	X2	Y2	Z2	X3	Y3	Z3	X4	Y4	Z4	X5	Y5	Z5	X6	Y6	Z6	X7	Y7	Z7	X8	Y8	Z8	X9	Y9	Z9	X10	Y10	Z10	X11	Y11	Z11	X12	Y12	Z12	X13	Y13	Z13	X14	Y14	Z14	X15	Y15	Z15	X16	Y16	Z16	X17	Y17	Z17	X18	Y18	Z18	X19	Y19	Z19	X20	Y20	Z20	X21	Y21	Z21	X22	Y22	Z22	X23	Y23	Z23	X24	Y24	Z24	X25	Y25	Z25	X26	Y26	Z26	X27	Y27	Z27	X28	Y28	Z28	X29	Y29	Z29	X30	Y30	Z30	X31	Y31	Z31	X32	Y32	Z32	X33	Y33	Z33	

89	46.187714285714	732.639995145019	1004.075337080311	499.427050726720	924.860970554141	1424.442918174444	315.480984564049	1015.532736734764	1356.878571272645	484.073874130484	923.340170412014	1435.391362641225	651.837815820826	916.732505188749	1489.877447064651	465.186090862355	956.618851582767	935.631618582269	620.772993575269	949.045769301491	957.129548887775	346.380299813204	1019.761542910318	749.249579081284	584.019893163675	953.780746398838	633.103296225814	645.398153219790	1034.516897169898	589.931350007716	562.087957930554	1046.277049015362	500.766762461062	568.153158558260	975.624304933237	734.797077748407	375.181648474306	880.720910679485	625.450461294677	311.667293288607	956.797908168028	537.319187512314	374.778277636688	945.801466133001	454.357678157217	375.278451636965	883.527095812601	395.347473240383	367.929635138598	751.200310852870	335.847867895273	313.948280606737	747.223121649282	209.996563705845	377.177740677947	1024.793110422086	410.509408665669	577.900884692961	962.617954900694	302.197470235003	641.627022780731	1011.711729357660	210.786867204315	578.536103742372	888.977965900789	42.116382231107	549.849746303766	1058.708419167448	99.160929470835	582.724874179492	973.341547519385	36.803465214707	623.744798972554	1180.229238755336	50.645527692910	609.119792419706	563.939453339401	115.834465518160	408.227031968207	635.050893291381	78.745321392625	336.180018113587	732.505498312496	110.918929713248	363.086716423361	833.307143785385	34.153628865788	350.690982397200	938.255921428761	1068.724234287397	200.067087631515	1117.745200975182	878.063206652913	198.196694148552	830.555352656021	1101.398547104171	770.565982141760	882.189060496058	845.566634764260	784.055581111809	
90	46.200642857143	732.999347575436	1003.985989917240	502.623002804772	922.915648885570	1425.573927573758	318.751349128369	1014.997406850217	1357.548373377922	486.443894213222	923.795336320857	1435.119243329048	655.136628814609	915.768028659200	1490.392657839350	468.872152000386	957.311575162178	936.355287297119	622.675740557362	948.674582941706	957.405551120778	348.421944042929	1019.060180423993	748.366970499303	587.201040434515	951.682870815298	633.037996237262	647.754263805974	1032.231245069825	589.321762996049	564.529239651974	1043.109664490935	500.085442447627	570.096300509858	980.900123050940	737.127334279907	377.753593380838	890.818802042036	625.038356441946	313.191992288054	970.003981961089	538.675437097477	376.143470954497	960.149897590076	454.208492568030	375.827467629133	895.420684284686	395.477357284581	368.585653770646	760.631503728717	341.652783803580	314.720319917398	752.001741647424	215.643979034984	376.915655124664	1020.966309827724	409.937150291206	579.556401107332	958.028420416938	301.839357208603	642.834610497842	1006.383429055904	210.344425155934	579.347117617309	882.589370382907	42.083776156102	549.999502015479	1052.410070296952	99.100518845584	582.989126707719	966.928862860673	36.728400005224	623.946516487409	1173.870870603197	50.490249714688	609.305444855065	564.762785869726	131.353093821460	407.611511282230	633.512283245755	89.566766042298	335.811273950402	732.784361492012	115.899871094290	362.464026780052	827.774093596661	33.284962161693	350.721790849119	932.711996343516	1069.231113552155	204.457697393218	1102.314097163765	869.531011119018	201.293349384205	841.308956003563	1097.757336168887	774.129547376654	904.734822378792	844.489458823005	785.574126561306	
91	46.213571428571	733.192053216981	1003.817308606533	505.657085320484	920.710133689207	1426.520654928982	321.855717234849	1014.343183428031	1358.092205933546	488.596368094472	924.230044056570	1434.726759299440	658.278541257866	914.677889125045	1490.774710570253	472.372530321189	957.792018742708	936.966274254409	624.503148948241	948.069318880209	957.395025185658	350.474540143761	1018.191322750748	747.444343019283	590.582861922327	949.353787153608	632.910743806062	650.200617270494	1029.845862704488	588.679929712416	567.204639781179	1039.839705757082	499.401342420848	572.326316492149	986.013276789685	739.653094893258	380.172334311266	900.818451533885	625.058819504984	314.411930020906	982.976957634834	540.584117887697	377.161550910856	974.431461886825	454.733113538373	376.138425137382	907.544647707948	396.155822526959	369.012635772888	770.564605312324	347.799411418488	315.364931922792	757.518079523375	221.819542569503	376.692955815112	1017.039524239105	409.340148704201	581.385894761203	953.295577788263	301.432538641986	644.125844764474	1000.995004544610	209.879924027211	580.261864835349	876.145715931880	42.057081954575	550.149523602692	1046.112671652560	98.963116649060	583.313214525460	960.454122747315	36.634772012810	624.155564196098	1167.478130925055	50.179395215109	609.513206742878	566.852884747616	147.271525704581	407.216816777107	633.085854601355	101.101417532160	335.562365781226	733.943841081393	121.596698678131	361.976355131342	823.086509097782	32.569662879263	350.660160690659	926.957131947156	1069.565531609436	208.756322773302	1086.203558145365	861.419996440014	204.264382865656	852.561690812632	1094.392589933068	777.695300479506	927.715194033009	844.205690185498	786.749764906384	
92	46.226500000000	733.202001057618	1003.624329336241	508.496206874830	918.315951287823	1427.323599816139	324.786832936787	1013.590523589864	1358.535823884997	490.539079698761	924.651873448345	1434.260710573374	661.255186751977	913.512234801915	1491.064322932534	475.671190886444	958.070890298959	937.501719730221	626.281149665789	947.253760238130	957.157409574996	352.535108124308	1017.184829544823	746.561558929979	594.029638452926	946.879740012439	632.768044508749	652.662094379099	1027.405771742308	588.041413175212	570.004867060487	1036.504799803272	498.735190557136	574.748792147505	990.848743486858	742.388482280034	382.413404988696	910.501236632391	625.580066360334	315.327438256516	995.475065877402	543.088318548932	377.798988405383	988.419738230880	455.983584512866	376.140773577339	919.698563846656	397.417428691584	369.172768321941	780.805064489824	354.121211972353	315.889111129864	763.753305074206	228.303782513346	376.530111836915	1013.050620166484	408.747093659066	583.321514841150	948.464269487907	301.022698778989	645.473040291865	995.571433923516	209.421109486942	581.251078060356	869.665755967413	42.044897838881	550.311293982553	1039.825269075233	98.784960094860	583.690513256609	953.941355344580	36.537513895148	624.375121776951	1161.067239132622	49.752245812259	609.739380681847	570.270406858737	162.903467776600	407.128648239605	633.956882903536	112.842257970660	335.489592573023	736.136849416741	127.799323854575	361.638058410251	819.672873730632	32.110331745974	350.473495142229	920.949134503607	1069.773157297114	212.942479994902	1069.475662234078	853.862853365983	207.120488076983	864.271558834135	1091.383784156651	781.194942779193	950.977078947096	844.788436997378	787.554644028776	
93	46.239428571429	733.021962413709	1003.469162091770	511.128553231189	915.812680745392	1428.037924293599	327.546873967279	1012.762648074961	1358.918923708356	492.289982239631	925.069274663682	1433.783596446049	664.063030517883	912.321548421073	1491.312503105077	478.762631324959	958.177455745621	938.007599496142	628.028959295726	946.270842280617	956.791932044024	354.583074262853	1016.053527217256	745.778001558182	597.410697466075	944.304452525906	632.649819465761	655.061558853504	1024.914746810382	587.430321966022	572.818789901648	1033.102300161298	498.102870391331	577.253675063967	995.313080972432	745.346846188341	384.450873039123	919.672912999597	626.643194944811	315.947473042200	1007.306369354451	546.203756261904	378.023942306470	1001.922795734736	457.984327562798	375.764315126604	931.716388716245	399.267390959370	369.027818210481	791.183418494439	360.409933508252	316.292679429173	770.726472490157	234.819630014336	376.427753757988	1009.003420497983	408.186133514865	585.287442685412	943.546112641446	300.650717545597	646.832686339285	990.118545008938	208.995583522017	582.279987896706	863.166332966210	42.053551066799	550.491321973796	1033.551744325507	98.598776414237	584.108394970094	947.411969388128	36.449037439148	624.604179634670	1154.650684230689	49.253916765867	609.978979998819	575.073382918093	177.489604147467	407.404065729554	636.325755621121	124.184370910917	335.627296916673	739.559851927795	134.202757130771	361.438127588327	818.024229520212	32.000044705610	350.125681879142	914.647160712336	1069.925640214770	216.994614347582	1052.202915268325	846.986109180093	209.877019910074	876.367394061219	1088.812792618079	784.551914416274	974.367910786700	846.313314567099	787.964019924450	
